<svg width="22" height="20" viewBox="0 0 22 20" fill="none" xmlns="http://www.w3.org/2000/svg">
<path fill-rule="evenodd" clip-rule="evenodd" d="M11 0.5C5.1989 0.5 0.5 4.85833 0.5 10.239C0.5 14.5435 3.51013 18.1904 7.68048 19.4818C8.20258 19.5714 8.39595 19.2725 8.39595 19.0095C8.39595 18.7763 8.3895 18.1665 8.38306 17.3534C5.46317 17.9393 4.84438 16.0501 4.84438 16.0501C4.3674 14.9261 3.67772 14.6212 3.67772 14.6212C2.72376 14.0174 3.74862 14.0294 3.74862 14.0294C4.79926 14.1011 5.36004 15.0337 5.36004 15.0337C6.29466 16.5224 7.81584 16.0919 8.41529 15.8408C8.51197 15.2131 8.78269 14.7826 9.07919 14.5375C6.7523 14.2984 4.30295 13.4614 4.30295 9.73081C4.30295 8.66664 4.70902 7.79975 5.38582 7.11821C5.27624 6.86711 4.91529 5.88065 5.4825 4.54147C5.4825 4.54147 6.36556 4.27842 8.37017 5.53988C9.2081 5.32465 10.1041 5.21704 11 5.21106C11.8895 5.21704 12.7919 5.32465 13.6298 5.53988C15.6344 4.27842 16.5175 4.54147 16.5175 4.54147C17.0912 5.88065 16.7302 6.87309 16.6206 7.11821C17.291 7.79975 17.6971 8.66664 17.6971 9.73081C17.6971 13.4734 15.2413 14.2924 12.9015 14.5375C13.2753 14.8365 13.6169 15.4343 13.6169 16.343C13.6169 17.6464 13.6041 18.6926 13.6041 19.0154C13.6041 19.2785 13.791 19.5774 14.326 19.4818C18.4963 18.1904 21.5 14.5435 21.5 10.245C21.5 4.85833 16.8011 0.5 11 0.5Z" fill="#373737"/>
</svg>
