<?xml version="1.0" encoding="UTF-8"?>
<svg width="140px"  viewBox="0 0 774 159" version="1.1" xmlns="http://www.w3.org/2000/svg" xmlns:xlink="http://www.w3.org/1999/xlink">
    <!-- Generator: Sketch 62 (91390) - https://sketch.com -->
    <title>A4</title>
    <desc>Created with Sketch.</desc>
    <g id="A4" stroke="none" stroke-width="1" fill="none" fill-rule="evenodd">
        <path d="M54.2342786,23.2819535 C85.9852499,-7.7621418 137.44403,-7.75916052 169.186023,23.2819535 L169.186023,23.2819535 C200.94298,54.337974 200.936995,104.679911 169.180038,135.726988 L169.180038,135.726988 L168.221012,136.648906 C136.380853,166.764759 85.6289531,166.445617 54.2073431,135.700157 L54.2073431,135.700157 L2.2996376,84.9050642 C0.829312972,83.4785237 8.52651283e-14,81.5207065 8.52651283e-14,79.4761486 C8.52651283e-14,77.4315908 0.829312972,75.4737735 2.2996376,74.0472331 L2.2996376,74.0472331 Z M156.169585,37.5172314 C132.798685,15.3986819 95.5146415,15.6214884 72.424721,38.1943289 L72.424721,38.1943289 L34.2720786,75.4931551 C33.1919224,76.5414192 32.5827019,77.9799107 32.5827019,79.4821112 C32.5827019,80.9843117 33.1919224,82.4228031 34.2720786,83.4710672 L34.2720786,83.4710672 L72.406764,120.7848 C95.7239304,143.603537 133.541375,143.61248 156.870513,120.805669 L156.870513,120.805669 L157.327632,120.357434 C168.232403,109.54558 174.373499,94.8444039 174.373499,79.500628 C174.373499,63.9437442 168.062839,49.0469799 156.873506,38.1943289 L156.873506,38.1943289 Z M115,40 C137.09139,40 155,57.90861 155,80 C155,102.09139 137.09139,120 115,120 C92.90861,120 75,102.09139 75,80 C75,57.90861 92.90861,40 115,40 Z M210.052433,53.3456786 C209.621493,51.4666398 211.980966,50.2099387 213.368532,51.5748725 L213.368532,51.5748725 L236.688198,74.5292107 C238.166107,75.9795031 238.997702,77.9479815 239,80.0014872 C239.002288,82.0549929 238.17509,84.0252634 236.700423,85.4787457 L236.700423,85.4787457 L213.365476,108.427071 C211.980966,109.788998 209.618437,108.532297 210.052433,106.653258 C214.097446,89.1068204 214.097446,70.8921166 210.052433,53.3456786 Z" id="Combined-Shape" fill="#4FC4F9" fill-rule="nonzero"></path>
        <path d="M314.4,111 L316.6,70.1 C317.666667,72.2333333 318.833333,74.5833333 320.1,77.15 C321.366667,79.7166667 322.6,82.3 323.8,84.9 C325,87.5 326.15,90 327.25,92.4 C328.35,94.8 329.266667,96.9 330,98.7 L330,98.7 L342.4,98.7 C343.2,96.9 344.116667,94.85 345.15,92.55 C346.183333,90.25 347.283333,87.8333333 348.45,85.3 C349.616667,82.7666667 350.833333,80.2 352.1,77.6 C353.366667,75 354.6,72.4666667 355.8,70 L355.8,70 L358.1,111 L374.9,111 L371.1,45.1 C370.566667,44.7 369.35,44.15 367.45,43.45 C365.55,42.75 363.333333,42.4 360.8,42.4 C358.466667,42.4 356.383333,42.9166667 354.55,43.95 C352.716667,44.9833333 351.166667,46.9333333 349.9,49.8 C347.966667,54 345.85,58.4333333 343.55,63.1 C341.25,67.7666667 338.9,72.5 336.5,77.3 C333.766667,72.1 331.083333,66.7166667 328.45,61.15 C325.816667,55.5833333 323.3,50.3333333 320.9,45.4 C320.3,44.8666667 319.1,44.2333333 317.3,43.5 C315.5,42.7666667 313.3,42.4 310.7,42.4 C309.433333,42.4 308.233333,42.5333333 307.1,42.8 C305.966667,43.0666667 304.95,43.5166667 304.05,44.15 C303.15,44.7833333 302.416667,45.6666667 301.85,46.8 C301.283333,47.9333333 300.966667,49.3333333 300.9,51 L300.9,51 L297.5,111 L314.4,111 Z M395.4,55.2 C397.933333,55.2 400.066667,54.35 401.8,52.65 C403.533333,50.95 404.4,48.8333333 404.4,46.3 C404.4,43.7666667 403.533333,41.6333333 401.8,39.9 C400.066667,38.1666667 397.933333,37.3 395.4,37.3 C392.866667,37.3 390.75,38.1666667 389.05,39.9 C387.35,41.6333333 386.5,43.7666667 386.5,46.3 C386.5,48.8333333 387.35,50.95 389.05,52.65 C390.75,54.35 392.866667,55.2 395.4,55.2 Z M403.5,111 L403.5,61.5 C403.1,61.3666667 402.166667,61.0833333 400.7,60.65 C399.233333,60.2166667 397.6,60 395.8,60 C393.266667,60 391.233333,60.5333333 389.7,61.6 C388.166667,62.6666667 387.4,64.5 387.4,67.1 L387.4,67.1 L387.4,111 L403.5,111 Z M431.6,111 L431.6,38.8 C431.2,38.6666667 430.266667,38.3833333 428.8,37.95 C427.333333,37.5166667 425.7,37.3 423.9,37.3 C421.366667,37.3 419.333333,37.8333333 417.8,38.9 C416.266667,39.9666667 415.5,41.8 415.5,44.4 L415.5,44.4 L415.5,111 L431.6,111 Z M473.6,111 C474.333333,109.6 475.366667,107.616667 476.7,105.05 C478.033333,102.483333 479.466667,99.6 481,96.4 C482.533333,93.2 484.1,89.8833333 485.7,86.45 C487.3,83.0166667 488.783333,79.7333333 490.15,76.6 C491.516667,73.4666667 492.7,70.6833333 493.7,68.25 C494.7,65.8166667 495.333333,64 495.6,62.8 C495.466667,62.7333333 495.166667,62.55 494.7,62.25 C494.233333,61.95 493.6,61.6333333 492.8,61.3 C492,60.9666667 491.066667,60.6666667 490,60.4 C488.933333,60.1333333 487.733333,60 486.4,60 C484.933333,60 483.7,60.1666667 482.7,60.5 C481.7,60.8333333 480.85,61.3166667 480.15,61.95 C479.45,62.5833333 478.85,63.3333333 478.35,64.2 C477.85,65.0666667 477.4,66 477,67 C476.266667,68.8 475.383333,70.9833333 474.35,73.55 L474.35,73.55 L471.25,81.25 C470.216667,83.8166667 469.266667,86.15 468.4,88.25 C467.533333,90.35 466.9,91.8333333 466.5,92.7 C466.1,91.8333333 465.433333,90.3166667 464.5,88.15 C463.566667,85.9833333 462.516667,83.4833333 461.35,80.65 C460.183333,77.8166667 458.966667,74.7333333 457.7,71.4 C456.433333,68.0666667 455.233333,64.7666667 454.1,61.5 C453.9,61.3666667 453.133333,61.0833333 451.8,60.65 C450.466667,60.2166667 448.733333,60 446.6,60 C443.933333,60 441.933333,60.65 440.6,61.95 C439.266667,63.25 438.6,64.8333333 438.6,66.7 C438.6,68.0333333 438.916667,69.5333333 439.55,71.2 C440.183333,72.8666667 440.766667,74.3666667 441.3,75.7 C441.566667,76.3666667 442.233333,77.8833333 443.3,80.25 C444.366667,82.6166667 445.7,85.4833333 447.3,88.85 C448.9,92.2166667 450.683333,95.8333333 452.65,99.7 C454.616667,103.566667 456.633333,107.333333 458.7,111 L458.7,111 L473.6,111 Z M527.6,112.4 C531.2,112.4 534.566667,111.933333 537.7,111 C540.833333,110.066667 543.533333,108.683333 545.8,106.85 C548.066667,105.016667 549.85,102.716667 551.15,99.95 C552.45,97.1833333 553.1,93.9333333 553.1,90.2 L553.1,90.2 L553.1,61.5 C552.7,61.3666667 551.766667,61.0833333 550.3,60.65 C548.833333,60.2166667 547.2,60 545.4,60 C542.866667,60 540.833333,60.5333333 539.3,61.6 C537.766667,62.6666667 537,64.5 537,67.1 L537,67.1 L537,87.2 C537,94.1333333 533.866667,97.6 527.6,97.6 C521.333333,97.6 518.2,94.1333333 518.2,87.2 L518.2,87.2 L518.2,61.5 C517.8,61.3666667 516.866667,61.0833333 515.4,60.65 C513.933333,60.2166667 512.3,60 510.5,60 C507.966667,60 505.933333,60.5333333 504.4,61.6 C502.866667,62.6666667 502.1,64.5 502.1,67.1 L502.1,67.1 L502.1,90.2 C502.1,93.9333333 502.75,97.1833333 504.05,99.95 C505.35,102.716667 507.133333,105.016667 509.4,106.85 C511.666667,108.683333 514.366667,110.066667 517.5,111 C520.633333,111.933333 524,112.4 527.6,112.4 Z M587.6,112.4 C595.133333,112.4 601.033333,110.833333 605.3,107.7 C609.566667,104.566667 611.7,100.2 611.7,94.6 C611.7,91.9333333 611.216667,89.6666667 610.25,87.8 C609.283333,85.9333333 607.983333,84.4 606.35,83.2 C604.716667,82 602.85,81.0833333 600.75,80.45 C598.65,79.8166667 596.466667,79.3333333 594.2,79 L594.2,79 L585.1,77.7 C582.966667,77.3666667 581.366667,76.9666667 580.3,76.5 C579.233333,76.0333333 578.7,75.2333333 578.7,74.1 C578.7,72.9666667 579.283333,72.05 580.45,71.35 C581.616667,70.65 583.7,70.3 586.7,70.3 C589.366667,70.3 591.75,70.5 593.85,70.9 C595.95,71.3 597.75,71.75 599.25,72.25 C600.75,72.75 601.95,73.2666667 602.85,73.8 C603.75,74.3333333 604.3,74.7 604.5,74.9 C604.633333,74.8333333 604.95,74.6333333 605.45,74.3 C605.95,73.9666667 606.483333,73.5 607.05,72.9 C607.616667,72.3 608.116667,71.5833333 608.55,70.75 C608.983333,69.9166667 609.2,68.9666667 609.2,67.9 C609.2,66.5 608.816667,65.3166667 608.05,64.35 C607.283333,63.3833333 606.266667,62.5666667 605,61.9 C602.8,60.7666667 600.183333,59.9333333 597.15,59.4 C594.116667,58.8666667 590.5,58.6 586.3,58.6 C582.166667,58.6 578.6,59.05 575.6,59.95 C572.6,60.85 570.133333,62.0833333 568.2,63.65 C566.266667,65.2166667 564.85,67.05 563.95,69.15 C563.05,71.25 562.6,73.5333333 562.6,76 C562.6,78.9333333 563.133333,81.3666667 564.2,83.3 C565.266667,85.2333333 566.716667,86.8166667 568.55,88.05 C570.383333,89.2833333 572.5,90.2166667 574.9,90.85 C577.3,91.4833333 579.8,91.9666667 582.4,92.3 L582.4,92.3 L587.6,92.9 C590.066667,93.2333333 591.883333,93.65 593.05,94.15 C594.216667,94.65 594.8,95.5666667 594.8,96.9 C594.8,98.1666667 594.1,99.05 592.7,99.55 C591.3,100.05 589.233333,100.3 586.5,100.3 C584.1,100.3 581.816667,100.116667 579.65,99.75 C577.483333,99.3833333 575.55,98.95 573.85,98.45 C572.15,97.95 570.683333,97.4166667 569.45,96.85 C568.216667,96.2833333 567.333333,95.8 566.8,95.4 L566.8,95.4 L561.1,105.8 C561.633333,106.2 562.583333,106.783333 563.95,107.55 C565.316667,108.316667 567.1,109.05 569.3,109.75 C571.5,110.45 574.116667,111.066667 577.15,111.6 C580.183333,112.133333 583.666667,112.4 587.6,112.4 Z M692.822656,111 L692.822656,105.921875 L654.590234,105.921875 L654.590234,76.9179688 L687.842188,76.9179688 L687.842188,71.8398438 L654.590234,71.8398438 L654.590234,45.0332031 L692.578516,45.0332031 L692.578516,39.90625 L648.584375,39.90625 L648.584375,111 L692.822656,111 Z M711.475,111 L711.475,79.8476562 L710.986719,48.5488281 L737.353906,111 L741.992578,111 L768.457422,48.3046875 L767.969141,80.0429688 L767.969141,111 L773.975,111 L773.975,39.90625 L765.967188,39.90625 L739.648828,102.650391 L713.428125,39.90625 L705.469141,39.90625 L705.469141,111 L711.475,111 Z" id="MilvusEM" fill="#FFFFFF" fill-rule="nonzero"></path>
    </g>
</svg>