<?xml version="1.0" encoding="UTF-8"?>
<svg width="80px" height="80px" viewBox="0 0 80 80" version="1.1" xmlns="http://www.w3.org/2000/svg" xmlns:xlink="http://www.w3.org/1999/xlink">
    <!-- Generator: Sketch 62 (91390) - https://sketch.com -->
    <title>icon/color/phantoscope</title>
    <desc>Created with Sketch.</desc>
    <g id="icon/color/" stroke="none" stroke-width="1" fill="none" fill-rule="evenodd">
        <path d="M45.1498675,69.5975232 L45.1498675,79.752322 L34.9950687,79.752322 L34.9950687,69.5975232 L45.1498675,69.5975232 Z M48.7411988,15.1083591 L48.741,24.86 L57.1876484,19.9849191 L65.856379,34.999601 L57.41,39.876 L65.856379,44.752721 L57.1876484,59.7674029 L48.741,54.891 L48.7411988,64.6439628 L31.4037375,64.6439628 L31.403,54.89 L22.9572878,59.7674029 L14.2885572,44.752721 L22.734,39.876 L14.2885572,34.999601 L22.9572878,19.9849191 L31.403,24.861 L31.4037375,15.1083591 L48.7411988,15.1083591 Z M68.3506225,50.3396853 L77.1449362,55.4170846 L72.0675368,64.2113983 L63.2732231,59.133999 L68.3506225,50.3396853 Z M11.7943137,50.3396853 L16.8717131,59.133999 L8.07739938,64.2113983 L3,55.4170846 L11.7943137,50.3396853 Z M44.361,32.445 L35.782,32.445 L31.492,39.875 L35.782,47.306 L44.361,47.306 L48.651,39.876 L44.361,32.445 Z M72.0675368,15.5409236 L77.1449362,24.3352373 L68.3506225,29.4126367 L63.2732231,20.618323 L72.0675368,15.5409236 Z M8.07739938,15.5409236 L16.8717131,20.618323 L11.7943137,29.4126367 L3,24.3352373 L8.07739938,15.5409236 Z M45.1498675,0 L45.1498675,10.1547988 L34.9950687,10.1547988 L34.9950687,0 L45.1498675,0 Z" id="Combined-Shape" fill="#8664EC"></path>
    </g>
</svg>